<svg width="18" height="15" viewBox="0 0 18 15" fill="none" xmlns="http://www.w3.org/2000/svg">
<path d="M1.4462 14.9181C1.10187 15.0513 0.774749 15.022 0.464849 14.8302C0.15495 14.639 0 14.3603 0 13.994V10.2725C0 10.0394 0.0688666 9.83123 0.2066 9.64806C0.344333 9.4649 0.533716 9.34835 0.774749 9.29839L8.26399 7.50008L0.774749 5.70177C0.533716 5.65182 0.344333 5.53527 0.2066 5.3521C0.0688666 5.16894 0 4.96081 0 4.72769V1.00619C0 0.639867 0.15495 0.360797 0.464849 0.168977C0.774749 -0.0221767 1.10187 -0.0511499 1.4462 0.0820582L17.3544 6.57595C17.7848 6.75911 18 7.06716 18 7.50008C18 7.93301 17.7848 8.24105 17.3544 8.42422L1.4462 14.9181Z" fill="#1D2939"/>
</svg>
